<svg width="18" height="49" viewBox="0 0 18 49" fill="none" xmlns="http://www.w3.org/2000/svg">
<g clip-path="url(#clip0_454_136)">
<g filter="url(#filter0_f_454_136)">
<path d="M17.2586 4.53017C17.2586 2.54761 15.6514 0.94043 13.6688 0.94043C11.6863 0.94043 10.0791 2.54761 10.0791 4.53017V7.6071C10.0791 9.58966 11.6863 11.1968 13.6688 11.1968C15.6514 11.1968 17.2586 9.58966 17.2586 7.6071V4.53017Z" fill="white"/>
</g>
<g filter="url(#filter1_f_454_136)">
<path d="M8.54033 4.53017C8.54033 2.54761 6.93314 0.94043 4.95058 0.94043C2.96802 0.94043 1.36084 2.54761 1.36084 4.53017V15.8122C1.36084 17.7948 2.96802 19.402 4.95058 19.402C6.93314 19.402 8.54033 17.7948 8.54033 15.8122V4.53017Z" fill="white"/>
</g>
<g filter="url(#filter2_f_454_136)">
<path d="M8.54033 24.0175C8.54033 22.0349 6.93314 20.4277 4.95058 20.4277C2.96802 20.4277 1.36084 22.0349 1.36084 24.0175V44.5303C1.36084 46.5129 2.96802 48.12 4.95058 48.12C6.93314 48.12 8.54033 46.5129 8.54033 44.5303V24.0175Z" fill="white"/>
</g>
<g filter="url(#filter3_f_454_136)">
<path d="M17.2586 15.8124C17.2586 13.8298 15.6514 12.2227 13.6688 12.2227C11.6863 12.2227 10.0791 13.8298 10.0791 15.8124V44.5303C10.0791 46.5129 11.6863 48.1201 13.6688 48.1201C15.6514 48.1201 17.2586 46.5129 17.2586 44.5303V15.8124Z" fill="white"/>
</g>
<g filter="url(#filter4_f_454_136)">
<path d="M13.6685 0.94043H4.95058C2.96802 0.94043 1.36084 2.54761 1.36084 4.53017C1.36084 6.51273 2.96802 8.11992 4.95058 8.11992H13.6685C15.6511 8.11992 17.2583 6.51273 17.2583 4.53017C17.2583 2.54761 15.6511 0.94043 13.6685 0.94043Z" fill="white"/>
</g>
<g filter="url(#filter5_f_454_136)">
<path d="M13.6685 40.9404H4.95058C2.96802 40.9404 1.36084 42.5476 1.36084 44.5302C1.36084 46.5127 2.96802 48.1199 4.95058 48.1199H13.6685C15.6511 48.1199 17.2583 46.5127 17.2583 44.5302C17.2583 42.5476 15.6511 40.9404 13.6685 40.9404Z" fill="white"/>
</g>
<g filter="url(#filter6_f_454_136)">
<path d="M13.6685 12.2227H4.95058C2.96802 12.2227 1.36084 13.8298 1.36084 15.8124C1.36084 17.795 2.96802 19.4021 4.95058 19.4021H13.6685C15.6511 19.4021 17.2583 17.795 17.2583 15.8124C17.2583 13.8298 15.6511 12.2227 13.6685 12.2227Z" fill="white"/>
</g>
</g>
<defs>
<filter id="filter0_f_454_136" x="9.66885" y="0.530173" width="8.0002" height="11.0773" filterUnits="userSpaceOnUse" color-interpolation-filters="sRGB">
<feFlood flood-opacity="0" result="BackgroundImageFix"/>
<feBlend mode="normal" in="SourceGraphic" in2="BackgroundImageFix" result="shape"/>
<feGaussianBlur stdDeviation="0.205128" result="effect1_foregroundBlur_454_136"/>
</filter>
<filter id="filter1_f_454_136" x="0.950583" y="0.530173" width="8.0002" height="19.2824" filterUnits="userSpaceOnUse" color-interpolation-filters="sRGB">
<feFlood flood-opacity="0" result="BackgroundImageFix"/>
<feBlend mode="normal" in="SourceGraphic" in2="BackgroundImageFix" result="shape"/>
<feGaussianBlur stdDeviation="0.205128" result="effect1_foregroundBlur_454_136"/>
</filter>
<filter id="filter2_f_454_136" x="0.950583" y="20.0175" width="8.0002" height="28.5129" filterUnits="userSpaceOnUse" color-interpolation-filters="sRGB">
<feFlood flood-opacity="0" result="BackgroundImageFix"/>
<feBlend mode="normal" in="SourceGraphic" in2="BackgroundImageFix" result="shape"/>
<feGaussianBlur stdDeviation="0.205128" result="effect1_foregroundBlur_454_136"/>
</filter>
<filter id="filter3_f_454_136" x="9.66885" y="11.8124" width="8.0002" height="36.718" filterUnits="userSpaceOnUse" color-interpolation-filters="sRGB">
<feFlood flood-opacity="0" result="BackgroundImageFix"/>
<feBlend mode="normal" in="SourceGraphic" in2="BackgroundImageFix" result="shape"/>
<feGaussianBlur stdDeviation="0.205128" result="effect1_foregroundBlur_454_136"/>
</filter>
<filter id="filter4_f_454_136" x="0.950583" y="0.530173" width="16.718" height="8.0002" filterUnits="userSpaceOnUse" color-interpolation-filters="sRGB">
<feFlood flood-opacity="0" result="BackgroundImageFix"/>
<feBlend mode="normal" in="SourceGraphic" in2="BackgroundImageFix" result="shape"/>
<feGaussianBlur stdDeviation="0.205128" result="effect1_foregroundBlur_454_136"/>
</filter>
<filter id="filter5_f_454_136" x="0.950583" y="40.5302" width="16.718" height="8.0002" filterUnits="userSpaceOnUse" color-interpolation-filters="sRGB">
<feFlood flood-opacity="0" result="BackgroundImageFix"/>
<feBlend mode="normal" in="SourceGraphic" in2="BackgroundImageFix" result="shape"/>
<feGaussianBlur stdDeviation="0.205128" result="effect1_foregroundBlur_454_136"/>
</filter>
<filter id="filter6_f_454_136" x="0.950583" y="11.8124" width="16.718" height="8.0002" filterUnits="userSpaceOnUse" color-interpolation-filters="sRGB">
<feFlood flood-opacity="0" result="BackgroundImageFix"/>
<feBlend mode="normal" in="SourceGraphic" in2="BackgroundImageFix" result="shape"/>
<feGaussianBlur stdDeviation="0.205128" result="effect1_foregroundBlur_454_136"/>
</filter>
<clipPath id="clip0_454_136">
<rect width="16.7179" height="48" fill="white" transform="translate(0.950684 0.530273)"/>
</clipPath>
</defs>
</svg>
